<svg xmlns="http://www.w3.org/2000/svg" viewBox="0 0 1180 360" role="img" aria-label="Rotaract Club Madrid">
  <defs><path id="ta" d="M 910.95 124.36 A 105.00 105.00 0 0 1 1089.05 124.36"/><path id="ba" d="M 910.95 235.64 A 105.00 105.00 0 0 0 1089.05 235.64"/></defs>
  <g fill="#d41367" font-family="'Segoe UI','Helvetica Neue',Arial,sans-serif">
    <text x="36" y="208" font-size="150" font-weight="800" letter-spacing="-3">Rotaract</text>
    <text x="40" y="306" font-size="92" font-weight="400">Club Madrid</text>
    <path d="M 1132.00 180.00 L 1149.68 189.81 L 1147.12 209.26 L 1127.50 214.16 L 1127.50 214.16 L 1142.04 228.22 L 1134.53 246.34 L 1114.32 246.00 L 1114.32 246.00 L 1124.72 263.34 L 1112.78 278.90 L 1093.34 273.34 L 1093.34 273.34 L 1098.90 292.78 L 1083.34 304.72 L 1066.00 294.32 L 1066.00 294.32 L 1066.34 314.53 L 1048.22 322.04 L 1034.16 307.50 L 1034.16 307.50 L 1029.26 327.12 L 1009.81 329.68 L 1000.00 312.00 L 1000.00 312.00 L 990.19 329.68 L 970.74 327.12 L 965.84 307.50 L 965.84 307.50 L 951.78 322.04 L 933.66 314.53 L 934.00 294.32 L 934.00 294.32 L 916.66 304.72 L 901.10 292.78 L 906.66 273.34 L 906.66 273.34 L 887.22 278.90 L 875.28 263.34 L 885.68 246.00 L 885.68 246.00 L 865.47 246.34 L 857.96 228.22 L 872.50 214.16 L 872.50 214.16 L 852.88 209.26 L 850.32 189.81 L 868.00 180.00 L 868.00 180.00 L 850.32 170.19 L 852.88 150.74 L 872.50 145.84 L 872.50 145.84 L 857.96 131.78 L 865.47 113.66 L 885.68 114.00 L 885.68 114.00 L 875.28 96.66 L 887.22 81.10 L 906.66 86.66 L 906.66 86.66 L 901.10 67.22 L 916.66 55.28 L 934.00 65.68 L 934.00 65.68 L 933.66 45.47 L 951.78 37.96 L 965.84 52.50 L 965.84 52.50 L 970.74 32.88 L 990.19 30.32 L 1000.00 48.00 L 1000.00 48.00 L 1009.81 30.32 L 1029.26 32.88 L 1034.16 52.50 L 1034.16 52.50 L 1048.22 37.96 L 1066.34 45.47 L 1066.00 65.68 L 1066.00 65.68 L 1083.34 55.28 L 1098.90 67.22 L 1093.34 86.66 L 1093.34 86.66 L 1112.78 81.10 L 1124.72 96.66 L 1114.32 114.00 L 1114.32 114.00 L 1134.53 113.66 L 1142.04 131.78 L 1127.50 145.84 L 1127.50 145.84 L 1147.12 150.74 L 1149.68 170.19 L 1132.00 180.00 Z M 1120.00 180.00 A 120.00 120.00 0 1 0 880.00 180.00 A 120.00 120.00 0 1 0 1120.00 180.00 Z" fill-rule="evenodd"/>
    <circle cx="1000.0" cy="180.0" r="90.00" fill="none" stroke="#d41367" stroke-width="6.75"/>
    <path d="M 1022.50 185.25 L 1090.00 185.25 L 1090.00 174.75 L 1022.50 174.75 Z"/><path d="M 1006.70 202.11 L 1040.45 260.57 L 1049.55 255.32 L 1015.80 196.86 Z"/><path d="M 984.20 196.86 L 950.45 255.32 L 959.55 260.57 L 993.30 202.11 Z"/><path d="M 977.50 174.75 L 910.00 174.75 L 910.00 185.25 L 977.50 185.25 Z"/><path d="M 993.30 157.89 L 959.55 99.43 L 950.45 104.68 L 984.20 163.14 Z"/><path d="M 1015.80 163.14 L 1049.55 104.68 L 1040.45 99.43 L 1006.70 157.89 Z"/>
    <circle cx="1000.0" cy="180.0" r="22.50" fill="none" stroke="#d41367" stroke-width="9.00"/>
    <rect x="995.80" y="153.00" width="8.40" height="19.50"/>
    <text font-size="33" font-weight="700" letter-spacing="3" text-anchor="middle"><textPath href="#ta" startOffset="50%">ROTARY</textPath></text>
    <text font-size="23" font-weight="700" letter-spacing="1.2" text-anchor="middle"><textPath href="#ba" startOffset="50%">INTERNATIONAL</textPath></text>
  </g>
</svg>
